<svg width="20" height="20" viewBox="0 0 20 20" fill="none" xmlns="http://www.w3.org/2000/svg">
<path d="M9.76562 1.98438C10 1.77604 10.2214 1.77604 10.4297 1.98438L18.5938 10.1875C18.8281 10.3958 18.8281 10.6042 18.5938 10.8125L10.4297 19.0156C10.2214 19.224 10 19.224 9.76562 19.0156L8.98438 18.2344C8.90625 18.1562 8.86719 18.0521 8.86719 17.9219C8.86719 17.7917 8.90625 17.6745 8.98438 17.5703L15.0391 11.5156H1.71875C1.40625 11.5156 1.25 11.3594 1.25 11.0469V9.95312C1.25 9.64062 1.40625 9.48438 1.71875 9.48438H15.0391L8.98438 3.42969C8.77604 3.19531 8.77604 2.97396 8.98438 2.76562L9.76562 1.98438Z" fill="#697386"/>
</svg>
