<svg width="20" height="20" viewBox="0 0 20 20" fill="none" xmlns="http://www.w3.org/2000/svg">
<path fill-rule="evenodd" clip-rule="evenodd" d="M0.986664 2.18434C1.10956 1.91947 1.37501 1.75 1.667 1.75H18.3337C18.6257 1.75 18.8911 1.91947 19.014 2.18434C19.1369 2.44922 19.0949 2.76134 18.9063 2.98429L12.417 10.6579V17.5C12.417 17.7599 12.2824 18.0013 12.0613 18.138C11.8402 18.2746 11.5641 18.2871 11.3316 18.1708L7.99826 16.5042C7.74417 16.3771 7.58367 16.1174 7.58367 15.8333V10.6579L1.09432 2.98429C0.905777 2.76134 0.86377 2.44922 0.986664 2.18434ZM3.28348 3.25L8.90635 9.89904C9.02085 10.0344 9.08367 10.206 9.08367 10.3833V15.3698L10.917 16.2865V10.3833C10.917 10.206 10.9798 10.0344 11.0943 9.89904L16.7172 3.25H3.28348Z" fill="#171717"/>
</svg>
