<svg width="159" height="14" viewBox="0 0 159 14" fill="none" xmlns="http://www.w3.org/2000/svg">
<g clip-path="url(#clip0_7255_15440)">
<path d="M135.044 9.68627C136.518 9.68627 137.713 8.47059 137.713 6.98039C137.713 5.4902 136.518 4.27451 135.044 4.27451C133.57 4.27451 132.375 5.4902 132.375 6.98039C132.375 8.47059 133.57 9.68627 135.044 9.68627ZM135.044 14C131.14 14 127.993 10.8627 127.993 6.98039C127.993 3.13725 131.18 0 135.044 0C138.948 0 142.095 3.13725 142.095 7.01961C142.135 10.8627 138.948 14 135.044 14Z" fill="white"/>
<path d="M118.512 9.68627C119.986 9.68627 121.181 8.47059 121.181 6.98039C121.181 5.4902 119.986 4.27451 118.512 4.27451C117.038 4.27451 115.843 5.4902 115.843 6.98039C115.843 8.47059 117.038 9.68627 118.512 9.68627ZM118.512 14C114.608 14 111.461 10.8627 111.461 6.98039C111.461 3.13725 114.648 0 118.512 0C122.416 0 125.563 3.13725 125.563 7.01961C125.603 10.8627 122.416 14 118.512 14Z" fill="white"/>
<path d="M151.576 9.68627C153.05 9.68627 154.245 8.47059 154.245 6.98039C154.245 5.4902 153.05 4.27451 151.576 4.27451C150.102 4.27451 148.907 5.4902 148.907 6.98039C148.907 8.47059 150.102 9.68627 151.576 9.68627ZM151.576 14C147.672 14 144.525 10.8627 144.525 6.98039C144.525 3.13725 147.712 0 151.576 0C155.48 0 158.627 3.13725 158.627 7.01961C158.667 10.8627 155.48 14 151.576 14Z" fill="white"/>
<path d="M11.1939 5.49003C11.1939 8.58807 9.00293 10.392 5.25835 10.392H3.78442V13.3332H0V0.666504H5.41769C9.04276 0.666504 11.1939 2.43121 11.1939 5.49003ZM7.32982 5.49003C7.32982 4.47043 6.57293 3.84297 5.37786 3.84297H3.78442V7.21552H5.33802C6.61277 7.21552 7.32982 6.54886 7.32982 5.49003Z" fill="white"/>
<path d="M27.1681 6.98032C27.1681 10.7058 24.2999 13.5686 20.2366 13.5686C16.1734 13.5686 13.3052 10.7058 13.3052 6.98032C13.3052 3.25483 16.1335 0.39209 20.2366 0.39209C24.2999 0.39209 27.1681 3.25483 27.1681 6.98032ZM23.304 6.98032C23.304 5.33327 22.0293 3.88229 20.2366 3.88229C18.444 3.88229 17.1693 5.33327 17.1693 6.98032C17.1693 8.62738 18.444 10.0784 20.2366 10.0784C22.0293 10.0784 23.304 8.62738 23.304 6.98032Z" fill="white"/>
<path d="M38.0036 13.3332L35.972 9.99984H35.8126H33.781V13.3332H29.9966V0.666504H35.8126C39.2784 0.666504 41.4295 2.35278 41.4295 5.25474C41.4295 6.78415 40.7523 8.07827 39.5572 8.94101L42.3059 13.3332H38.0036ZM33.542 6.6665H35.5338C36.5695 6.6665 37.3662 6.07827 37.3662 5.21552C37.3662 4.39199 36.6093 3.84297 35.5338 3.84297H33.542V6.6665Z" fill="white"/>
<path d="M55.1329 3.92141H51.3087V13.3332H47.4844V3.92141H43.6602V0.666504H55.1329V3.92141V3.92141Z" fill="white"/>
<path d="M62.5025 13.6078C60.3912 13.6078 58.2799 12.8627 57.0848 12.1568L56.9653 12.0784L58.7579 9.21562L58.8775 9.29405C60.1124 9.96072 61.4668 10.3921 62.4627 10.3921C63.2992 10.3921 63.8171 10.1176 63.8171 9.64699C63.8171 9.13719 62.9407 8.90189 61.8652 8.62738C59.9132 8.1568 57.284 7.49013 57.284 4.43131C57.284 2.07836 59.3555 0.39209 62.3033 0.39209C63.8569 0.39209 65.4106 0.745031 67.1633 1.52934L67.2828 1.56856L65.8886 4.47052L65.7691 4.39209C64.6537 3.84307 63.5781 3.56856 62.4627 3.56856C61.7058 3.56856 61.1879 3.84307 61.1879 4.31366C61.1879 4.82346 62.0245 5.01954 63.1001 5.25483C65.052 5.72542 67.721 6.35287 67.721 9.45091C67.8007 11.9999 65.7292 13.6078 62.5025 13.6078Z" fill="white"/>
<path d="M74.6926 0.666504V13.3332H70.9082V0.666504H74.6926Z" fill="white"/>
<path d="M91.1051 6.98023C91.1051 10.8234 88.2369 13.3332 84.094 13.3332H78.6763V0.666504H84.094C88.2369 0.666504 91.1051 3.13709 91.1051 6.98023ZM87.1215 6.98023C87.1215 5.21552 85.8069 3.99984 84.0143 3.99984H82.4208V10.0391H84.0143C85.8069 9.99984 87.1215 8.74493 87.1215 6.98023Z" fill="white"/>
<path d="M97.5186 3.80376V5.49003H102.817V8.50964H97.5186V10.1567H103.693V13.294H93.6943V0.666504H103.693V3.80376H97.5186Z" fill="white"/>
</g>
<defs>
<clipPath id="clip0_7255_15440">
<rect width="158.667" height="14" fill="white"/>
</clipPath>
</defs>
</svg>
