<svg width="159" height="14" viewBox="0 0 159 14" fill="none" xmlns="http://www.w3.org/2000/svg">
<g clip-path="url(#clip0_7287_23605)">
<path d="M135.044 9.68627C136.518 9.68627 137.713 8.47059 137.713 6.98039C137.713 5.4902 136.518 4.27451 135.044 4.27451C133.57 4.27451 132.375 5.4902 132.375 6.98039C132.375 8.47059 133.57 9.68627 135.044 9.68627ZM135.044 14C131.14 14 127.993 10.8627 127.993 6.98039C127.993 3.13725 131.18 0 135.044 0C138.948 0 142.095 3.13725 142.095 7.01961C142.135 10.8627 138.948 14 135.044 14Z" fill="#1EAAE2"/>
<path d="M118.512 9.68627C119.986 9.68627 121.181 8.47059 121.181 6.98039C121.181 5.4902 119.986 4.27451 118.512 4.27451C117.038 4.27451 115.843 5.4902 115.843 6.98039C115.843 8.47059 117.038 9.68627 118.512 9.68627ZM118.512 14C114.608 14 111.461 10.8627 111.461 6.98039C111.461 3.13725 114.648 0 118.512 0C122.416 0 125.563 3.13725 125.563 7.01961C125.603 10.8627 122.416 14 118.512 14Z" fill="#6EC8C2"/>
<path d="M151.576 9.68627C153.05 9.68627 154.245 8.47059 154.245 6.98039C154.245 5.4902 153.05 4.27451 151.576 4.27451C150.102 4.27451 148.907 5.4902 148.907 6.98039C148.907 8.47059 150.102 9.68627 151.576 9.68627ZM151.576 14C147.672 14 144.525 10.8627 144.525 6.98039C144.525 3.13725 147.712 0 151.576 0C155.48 0 158.627 3.13725 158.627 7.01961C158.667 10.8627 155.48 14 151.576 14Z" fill="#0373B7"/>
<path d="M11.1939 5.49052C11.1939 8.58856 9.00293 10.3925 5.25835 10.3925H3.78442V13.3337H0V0.666992H5.41769C9.04276 0.666992 11.1939 2.4317 11.1939 5.49052ZM7.32982 5.49052C7.32982 4.47091 6.57293 3.84346 5.37786 3.84346H3.78442V7.21601H5.33802C6.61277 7.21601 7.32982 6.54934 7.32982 5.49052Z" fill="#5E6065"/>
<path d="M27.1676 6.98081C27.1676 10.7063 24.2994 13.569 20.2361 13.569C16.1729 13.569 13.3047 10.7063 13.3047 6.98081C13.3047 3.25532 16.133 0.392578 20.2361 0.392578C24.2994 0.392578 27.1676 3.25532 27.1676 6.98081ZM23.3035 6.98081C23.3035 5.33375 22.0288 3.88277 20.2361 3.88277C18.4435 3.88277 17.1688 5.33375 17.1688 6.98081C17.1688 8.62787 18.4435 10.0789 20.2361 10.0789C22.0288 10.0789 23.3035 8.62787 23.3035 6.98081Z" fill="#5E6065"/>
<path d="M38.0031 13.3337L35.9715 10.0003H35.8121H33.7805V13.3337H29.9961V0.666992H35.8121C39.2779 0.666992 41.429 2.35327 41.429 5.25523C41.429 6.78464 40.7518 8.07876 39.5567 8.9415L42.3054 13.3337H38.0031ZM33.5415 6.66699H35.5333C36.569 6.66699 37.3657 6.07876 37.3657 5.21601C37.3657 4.39248 36.6089 3.84346 35.5333 3.84346H33.5415V6.66699Z" fill="#5E6065"/>
<path d="M55.1329 3.92189H51.3087V13.3337H47.4844V3.92189H43.6602V0.666992H55.1329V3.92189V3.92189Z" fill="#5E6065"/>
<path d="M62.503 13.6083C60.3917 13.6083 58.2804 12.8632 57.0853 12.1573L56.9658 12.0789L58.7584 9.21611L58.8779 9.29454C60.1129 9.96121 61.4673 10.3926 62.4632 10.3926C63.2997 10.3926 63.8176 10.1181 63.8176 9.64748C63.8176 9.13768 62.9412 8.90238 61.8656 8.62787C59.9137 8.15728 57.2845 7.49062 57.2845 4.43179C57.2845 2.07885 59.356 0.392578 62.3038 0.392578C63.8574 0.392578 65.411 0.745519 67.1638 1.52983L67.2833 1.56905L65.8891 4.47101L65.7696 4.39258C64.6542 3.84356 63.5786 3.56905 62.4632 3.56905C61.7063 3.56905 61.1884 3.84356 61.1884 4.31415C61.1884 4.82395 62.025 5.02003 63.1006 5.25532C65.0525 5.72591 67.7215 6.35336 67.7215 9.4514C67.8012 12.0004 65.7297 13.6083 62.503 13.6083Z" fill="#5E6065"/>
<path d="M74.6926 0.666992V13.3337H70.9082V0.666992H74.6926Z" fill="#5E6065"/>
<path d="M91.1046 6.98072C91.1046 10.8239 88.2364 13.3337 84.0935 13.3337H78.6758V0.666992H84.0935C88.2364 0.666992 91.1046 3.13758 91.1046 6.98072ZM87.121 6.98072C87.121 5.21601 85.8064 4.00033 84.0138 4.00033H82.4204V10.0395H84.0138C85.8064 10.0003 87.121 8.74542 87.121 6.98072Z" fill="#5E6065"/>
<path d="M97.5186 3.80425V5.49052H102.817V8.51013H97.5186V10.1572H103.693V13.2944H93.6943V0.666992H103.693V3.80425H97.5186Z" fill="#5E6065"/>
</g>
<defs>
<clipPath id="clip0_7287_23605">
<rect width="158.667" height="14" fill="white"/>
</clipPath>
</defs>
</svg>
