<svg width="20" height="20" viewBox="0 0 20 20" fill="none" xmlns="http://www.w3.org/2000/svg">
<path d="M1.5 3.1001C1.5 2.54781 1.94772 2.1001 2.5 2.1001H17.5C18.0523 2.1001 18.5 2.54781 18.5 3.1001V3.93343C18.5 4.48572 18.0523 4.93343 17.5 4.93343H2.5C1.94772 4.93343 1.5 4.48572 1.5 3.93343V3.1001Z" fill="white"/>
<path d="M1.5 9.6001C1.5 9.04781 1.94772 8.6001 2.5 8.6001H17.5C18.0523 8.6001 18.5 9.04781 18.5 9.6001V10.4334C18.5 10.9857 18.0523 11.4334 17.5 11.4334H2.5C1.94772 11.4334 1.5 10.9857 1.5 10.4334V9.6001Z" fill="white"/>
<path d="M1.5 16.1001C1.5 15.5478 1.94772 15.1001 2.5 15.1001H17.5C18.0523 15.1001 18.5 15.5478 18.5 16.1001V16.9334C18.5 17.4857 18.0523 17.9334 17.5 17.9334H2.5C1.94772 17.9334 1.5 17.4857 1.5 16.9334V16.1001Z" fill="white"/>
</svg>
