<svg width="20" height="20" viewBox="0 0 20 20" fill="none" xmlns="http://www.w3.org/2000/svg">
<path fill-rule="evenodd" clip-rule="evenodd" d="M10.75 4.16699C10.75 3.75278 10.4142 3.41699 10 3.41699C9.58579 3.41699 9.25 3.75278 9.25 4.16699V9.25H4.16699C3.75278 9.25 3.41699 9.58579 3.41699 10C3.41699 10.4142 3.75278 10.75 4.16699 10.75H9.25V15.8337C9.25 16.2479 9.58579 16.5837 10 16.5837C10.4142 16.5837 10.75 16.2479 10.75 15.8337V10.75H15.8337C16.2479 10.75 16.5837 10.4142 16.5837 10C16.5837 9.58579 16.2479 9.25 15.8337 9.25H10.75V4.16699Z" fill="#0078D4"/>
</svg>
