<svg width="32" height="32" viewBox="0 0 32 32" fill="none" xmlns="http://www.w3.org/2000/svg">
<path d="M14.3211 7.0625H12.6883L14.8797 14.625H9.85234L8.30547 12.5625H6.54375L7.53203 16L6.54375 19.4375H8.30547L9.85234 17.375H14.8797L12.6883 24.9375H14.3211L18.618 17.375H23.6023C24.118 17.375 24.7052 17.2174 25.3641 16.9023C26.0229 16.5872 26.4526 16.2865 26.6531 16C26.4526 15.7135 26.0229 15.4128 25.3641 15.0977C24.7052 14.7826 24.118 14.625 23.6023 14.625H18.618L14.3211 7.0625ZM15.0945 5C15.3523 5 15.5529 5.11458 15.6961 5.34375L19.8211 12.5625H23.6023C24.6622 12.5625 25.7794 12.9206 26.9539 13.6367C28.157 14.3242 28.7586 15.112 28.7586 16C28.7586 16.888 28.157 17.6901 26.9539 18.4062C25.7794 19.0937 24.6622 19.4375 23.6023 19.4375H19.8211L15.6961 26.6562C15.5529 26.8854 15.3523 27 15.0945 27H10.8836C10.6544 27 10.4682 26.8997 10.325 26.6992C10.1818 26.5273 10.1531 26.3411 10.2391 26.1406L12.1297 19.4375H10.8836L9.55156 21.2422C9.40833 21.4141 9.22214 21.5 8.99297 21.5H4.69609C4.46693 21.5 4.28073 21.4141 4.1375 21.2422C4.02292 21.0703 3.97995 20.8698 4.00859 20.6406L5.38359 16L4.00859 11.3594C3.97995 11.1302 4.02292 10.9297 4.1375 10.7578C4.28073 10.5859 4.46693 10.5 4.69609 10.5H8.99297C9.22214 10.5 9.40833 10.5859 9.55156 10.7578L10.8836 12.5625H12.1297L10.2391 5.85937C10.1818 5.77344 10.1674 5.67318 10.1961 5.55859C10.2247 5.44401 10.2677 5.34375 10.325 5.25781C10.3823 5.17187 10.4539 5.11458 10.5398 5.08594C10.6544 5.02865 10.769 5 10.8836 5H15.0945Z" fill="#697386"/>
</svg>
